<svg xmlns="http://www.w3.org/2000/svg" width="65.003" height="44.663" viewBox="0 0 65.003 44.663">
  <path id="Path_2" data-name="Path 2" d="M1.344-27.132a20.092,20.092,0,0,1,.84-2.058,14.419,14.419,0,0,1,1.3-2.247,8.867,8.867,0,0,1,1.7-1.827,3.666,3.666,0,0,1,2.037-.84,1.525,1.525,0,0,1,1.239.378,2.142,2.142,0,0,1,.525,1.134,5.612,5.612,0,0,1,.021,1.617,14.51,14.51,0,0,1-.315,1.764q-.21.861-.42,1.6T7.938-26.5q-.294.966-.567,1.89T6.8-22.764Q4.7-16.128,2.226-9.681T-2.352,3.36q-.042.126-.189.609t-.336,1.176q-.189.693-.378,1.491t-.336,1.491a7.375,7.375,0,0,0-.168,1.2q-.021.5.147.63a18.971,18.971,0,0,0,1.3-2.268q.966-1.848,2.289-4.515t2.9-5.859Q4.452-5.88,5.943-9.009l2.793-5.859q1.3-2.73,2.142-4.494.336-.63.546-1.092t.336-.756a.931.931,0,0,1,.042.294,4.2,4.2,0,0,1,.42-.378.653.653,0,0,1-.042.672q-.084.294-.21.756t-.336,1.134q-.378,1.428-.924,3.486T9.6-10.857Q9.03-8.526,8.526-6.2T7.749-1.911a24.476,24.476,0,0,0-.273,3.3q0,1.344.42,1.638.378.294,1.239-.63a21.307,21.307,0,0,0,1.932-2.5q1.071-1.575,2.2-3.528t2.142-3.78q1.008-1.827,1.7-3.192t.9-1.785q.084-.168.189-.357a3.488,3.488,0,0,0,.189-.4q.294-.63.63-1.407T19.74-16.3q-.756-1.68-1.365-3.4a25.074,25.074,0,0,1-.945-3.381,18.735,18.735,0,0,1-.378-3.213,7.843,7.843,0,0,1,.42-2.856,6.079,6.079,0,0,1,.672-1.407,4.783,4.783,0,0,1,1.071-1.218,2.588,2.588,0,0,1,1.323-.567,1.947,1.947,0,0,1,1.428.462,3.752,3.752,0,0,1,1.3,2.583,13.473,13.473,0,0,1-.147,3.843,31.561,31.561,0,0,1-1.134,4.536q-.777,2.394-1.659,4.62.966,2.184,2.016,4.158t1.89,3.444a.331.331,0,0,1-.126.42q-.294.084-.378-.126l-.336-.63q-.756-1.344-1.638-3.024t-1.722-3.528q-.294.756-.588,1.449t-.63,1.323q-1.008,2.226-1.68,3.486-.252.5-.9,1.722T14.721-4.893Q13.86-3.4,12.894-1.827a33.149,33.149,0,0,1-1.932,2.835A15.03,15.03,0,0,1,9.156,3.024q-.84.756-1.386.588Q7.1,3.4,6.993,2.079A18.608,18.608,0,0,1,7.1-1.239q.21-1.995.693-4.389t1.029-4.7q.546-2.31,1.071-4.284t.861-3.15q-.84,1.806-2.163,4.578t-2.814,5.9Q4.284-4.158,2.73-.987T-.126,4.725q-1.3,2.541-2.226,4.158t-1.134,1.659a.546.546,0,0,1-.672-.4,3.357,3.357,0,0,1-.126-1.26,9.083,9.083,0,0,1,.273-1.7q.231-.924.462-1.785t.42-1.47q.189-.609.231-.735Q-.756-3.444,1.743-9.954t4.6-13.188q.252-.882.525-1.743t.525-1.743q.126-.462.462-1.617A19.045,19.045,0,0,0,8.379-30.6a5.732,5.732,0,0,0,0-2.079.971.971,0,0,0-1.113-.84,2.983,2.983,0,0,0-1.827.777A8.914,8.914,0,0,0,3.885-31a15.133,15.133,0,0,0-1.218,2.121,15.722,15.722,0,0,0-.777,1.911l-.042.084q-.126.21-.294.126A.27.27,0,0,1,1.344-27.132Zm18.69,10.08q.756-1.932,1.449-4.137a33.736,33.736,0,0,0,1.05-4.221,13.159,13.159,0,0,0,.189-3.633,3.286,3.286,0,0,0-1.134-2.373,1.3,1.3,0,0,0-1.155-.315,2.469,2.469,0,0,0-1.05.588,4.47,4.47,0,0,0-.84,1.05,5.988,5.988,0,0,0-.525,1.113,7.645,7.645,0,0,0-.4,2.625,16.134,16.134,0,0,0,.336,2.961,26.169,26.169,0,0,0,.861,3.171Q19.362-18.606,20.034-17.052Zm3.7,9.366a2.7,2.7,0,0,0,.672,0q.336-.042.252-.378a.461.461,0,0,0-.483.021A2.6,2.6,0,0,0,23.73-7.686Zm-.336.546a1.818,1.818,0,0,0-.1.693.417.417,0,0,0,.357.4,3.425,3.425,0,0,0,1.449-.063,10.389,10.389,0,0,0,1.575-.525,15.912,15.912,0,0,0,1.554-.756q.756-.42,1.47-.8l.756-.378a.284.284,0,0,1,.378.168q.084.21-.168.378l-1.218.609q-.546.273-1.176.609a12.414,12.414,0,0,1-1.2.609,10.009,10.009,0,0,1-1.785.63,4.775,4.775,0,0,1-1.68.147.955.955,0,0,1-.882-.924,2.007,2.007,0,0,1,.294-1.365,2.322,2.322,0,0,1,.882-.819,1.325,1.325,0,0,1,.924-.147q.42.105.42.651a1.333,1.333,0,0,1-.084.378.88.88,0,0,1-.756.525A3.431,3.431,0,0,1,23.394-7.14ZM30.87-8.148a2.561,2.561,0,0,0-.21.8l1.386-1.092q.252-.252.42.042.168.252-.042.378l-1.638,1.3a.847.847,0,0,0,.693.378,3.914,3.914,0,0,0,1.05-.063A9.325,9.325,0,0,0,33.684-6.7q.588-.189,1.008-.315A16.251,16.251,0,0,0,36.33-7.6l1.6-.672q.21-.084.546-.252.294-.168.378.126.168.21-.084.378-.336.168-.987.462t-1.491.609q-.84.315-1.764.609A13.525,13.525,0,0,1,32.76-5.9a5,5,0,0,1-1.491.063,1.528,1.528,0,0,1-.987-.462l-.588.462a.284.284,0,0,1-.42-.042.318.318,0,0,1,.084-.42l.714-.588a2.35,2.35,0,0,1,0-.63,2.814,2.814,0,0,1,.252-.84.284.284,0,0,1,.378-.168.363.363,0,0,1,.168.294ZM38.724-9.7a4.369,4.369,0,0,1,.21-.462q.588-1.722,1.365-3.8t1.554-4.2q.777-2.121,1.554-4.137t1.428-3.591q.651-1.575,1.113-2.562a3.284,3.284,0,0,1,.63-1.071q.42-.21.42.357a4.594,4.594,0,0,1-.21,1.281,19.28,19.28,0,0,1-.63,1.974q-1.344,3.948-3.171,8.085T39.438-9.87q-.42,1.092-.63,1.806-.294.84-.5,1.428t-.294.924q-.084.336-.357,1.344t-.462,2.079a8.752,8.752,0,0,0-.147,1.932q.042.861.546.9.252,0,.252.294a.26.26,0,0,1-.294.294A1.141,1.141,0,0,1,36.54.105a6.813,6.813,0,0,1-.021-2.079A13.311,13.311,0,0,1,37-4.242q.336-1.092.462-1.6a11.327,11.327,0,0,1,.42-1.365q.336-.945.8-2.289A.468.468,0,0,1,38.724-9.7Zm3.486-7.77q.966-2.184,1.827-4.347t1.575-4.263q.126-.294.231-.588t.189-.588q-.378.84-.819,1.932t-.924,2.352q-.483,1.26-1.008,2.667T42.21-17.472Zm-.924,9.786a2.7,2.7,0,0,0,.672,0q.336-.042.252-.378a.461.461,0,0,0-.483.021A2.6,2.6,0,0,0,41.286-7.686Zm-.336.546a1.818,1.818,0,0,0-.1.693.417.417,0,0,0,.357.4,3.425,3.425,0,0,0,1.449-.063,10.389,10.389,0,0,0,1.575-.525,15.912,15.912,0,0,0,1.554-.756q.756-.42,1.47-.8l.756-.378a.284.284,0,0,1,.378.168q.084.21-.168.378L47-7.413q-.546.273-1.176.609a12.415,12.415,0,0,1-1.2.609,10.009,10.009,0,0,1-1.785.63,4.775,4.775,0,0,1-1.68.147.955.955,0,0,1-.882-.924,2.007,2.007,0,0,1,.294-1.365,2.322,2.322,0,0,1,.882-.819,1.325,1.325,0,0,1,.924-.147q.42.105.42.651a1.333,1.333,0,0,1-.084.378.88.88,0,0,1-.756.525A3.431,3.431,0,0,1,40.95-7.14Zm7.728-1.218h.084a1.773,1.773,0,0,1,.483.252.781.781,0,0,1,.252.63,4.083,4.083,0,0,1-.273,1.344,17.2,17.2,0,0,1-1.092,2.394,4.933,4.933,0,0,0-.252.462l-.357.714a6.443,6.443,0,0,0-.315.735,1.016,1.016,0,0,0-.084.525h.084a.373.373,0,0,0,.168-.042l.252-.084a11.308,11.308,0,0,0,1.785-.861q1.155-.651,2.457-1.428t2.5-1.533q1.2-.756,1.911-1.134.84-.5,1.7-.987t1.743-.9a2.3,2.3,0,0,1,.294-.126,2.3,2.3,0,0,0,.294-.126q.21-.126.378.126.084.294-.168.378a39.948,39.948,0,0,0-3.7,1.974q-1.89,1.134-3.612,2.142-.336.21-1.26.8T49.98-1.953a20.607,20.607,0,0,1-1.974.945q-.924.378-1.218.168-.336-.252-.168-.924a7.758,7.758,0,0,1,.567-1.491q.4-.819.819-1.6a12.6,12.6,0,0,0,.588-1.2,5.541,5.541,0,0,0,.336-1.071.652.652,0,0,0-.063-.462.687.687,0,0,0-.315-.231,1.785,1.785,0,0,1-.462-.294q-.5-.462-.315-.8a.823.823,0,0,1,.546-.42.567.567,0,0,1,.567.126Q49.1-8.988,48.678-8.358Z" transform="translate(4.292 34.108)" fill="#e5a96c"/>
</svg>
