<?xml version="1.0" encoding="utf-8"?>
<!-- Generator: Adobe Illustrator 23.0.3, SVG Export Plug-In . SVG Version: 6.00 Build 0)  -->
<svg version="1.1" id="Laag_1" xmlns="http://www.w3.org/2000/svg" xmlns:xlink="http://www.w3.org/1999/xlink" x="0px" y="0px"
	 viewBox="0 0 159.3 118.8" style="enable-background:new 0 0 159.3 118.8;" xml:space="preserve">
<style type="text/css">
	.st0{enable-background:new    ;}
	.st1{fill:#E5A96C;}
</style>
<g class="st0">
	<path class="st1" d="M64,14.6c2.8,4.2,5,9.3,6.7,15.5c1.7,6.1,2.5,12.5,2.5,19.2c0,14.5-3.7,27.6-11.1,39.3
		c-7.4,11.7-18.3,20.9-32.8,27.6l-3.8-7.5c8.1-3.3,15.1-8.5,21.1-15.5c6-7,9.5-14.1,10.7-21.3c0.8-3.3,1.3-6.5,1.3-9.6
		c0-2.8-0.4-5.4-1.3-7.9c-6.1,6.7-14.2,10-24.2,10c-9.8,0-17.7-2.9-23.8-8.6C3.1,50.1,0,42.2,0,32.2C0,22.7,3.2,15,9.6,9
		C16,3,24.2,0,34.3,0C47.9,0,57.8,4.9,64,14.6z M150.1,14.6c2.8,4.2,5,9.3,6.7,15.5c1.7,6.1,2.5,12.5,2.5,19.2
		c0,14.5-3.7,27.6-11.1,39.3c-7.4,11.7-18.3,20.9-32.8,27.6l-3.8-7.5c8.1-3.3,15.1-8.5,21.1-15.5c6-7,9.5-14.1,10.7-21.3
		c0.8-3.3,1.3-6.5,1.3-9.6c0-2.8-0.4-5.4-1.3-7.9c-6.1,6.7-14.2,10-24.2,10c-9.8,0-17.7-2.9-23.8-8.6c-6.1-5.7-9.2-13.6-9.2-23.6
		c0-9.5,3.2-17.2,9.6-23.2c6.4-6,14.6-9,24.7-9C134,0,143.9,4.9,150.1,14.6z"/>
</g>
</svg>
