<svg xmlns="http://www.w3.org/2000/svg" width="46.219" height="46.219" viewBox="0 0 46.219 46.219">
  <path id="script" d="M38.975,38.975V7.777a3.466,3.466,0,0,0-3.466-3.466H10.625a4.6,4.6,0,0,1,.618,2.311V43.6a2.311,2.311,0,1,0,4.622,0V40.131a1.156,1.156,0,0,1,1.155-1.155Zm2.311,0h5.777a1.156,1.156,0,0,1,1.155,1.155v2.311a5.777,5.777,0,0,1-5.777,5.777H13.555A4.622,4.622,0,0,1,8.933,43.6V11.244H6.622A4.622,4.622,0,0,1,6.622,2H35.509a5.777,5.777,0,0,1,5.777,5.777ZM18.177,41.286V43.6a4.6,4.6,0,0,1-.618,2.311H42.442a3.466,3.466,0,0,0,3.466-3.466V41.286ZM8.933,8.933V6.622A2.311,2.311,0,1,0,6.622,8.933Zm8.088,4.622a1.155,1.155,0,0,1,0-2.311H33.2a1.155,1.155,0,0,1,0,2.311Zm0,6.933a1.155,1.155,0,0,1,0-2.311H33.2a1.155,1.155,0,0,1,0,2.311Zm0,6.933a1.155,1.155,0,0,1,0-2.311H33.2a1.155,1.155,0,0,1,0,2.311Zm0,6.933a1.155,1.155,0,0,1,0-2.311H28.576a1.155,1.155,0,0,1,0,2.311Z" transform="translate(-2 -2)" fill="#636668"/>
</svg>
