<svg xmlns="http://www.w3.org/2000/svg" width="41.601" height="41.6" viewBox="0 0 41.601 41.6">
  <path id="bid" d="M28.422,14.555h1.155a3.466,3.466,0,0,1,3.466,3.466,1.155,1.155,0,1,1-2.311,0,1.156,1.156,0,0,0-1.155-1.155H18.023a1.155,1.155,0,0,0-1.155,1.155v2.618a1.156,1.156,0,0,0,.992,1.144l12.208,1.744a3.466,3.466,0,0,1,2.976,3.432v2.618a3.467,3.467,0,0,1-3.466,3.466H28.422V34.2a1.155,1.155,0,1,1-2.311,0V33.042H21.49V34.2a1.155,1.155,0,1,1-2.311,0V33.042H18.023a3.466,3.466,0,0,1-3.466-3.466,1.155,1.155,0,0,1,2.311,0,1.156,1.156,0,0,0,1.155,1.155H29.578a1.156,1.156,0,0,0,1.155-1.155V26.958a1.156,1.156,0,0,0-.992-1.144L17.533,24.07a3.466,3.466,0,0,1-2.976-3.432V18.021a3.466,3.466,0,0,1,3.466-3.466h1.155V13.4a1.155,1.155,0,1,1,2.311,0v1.155h4.622V13.4a1.155,1.155,0,1,1,2.311,0ZM3,23.8A20.79,20.79,0,1,1,13.145,41.664L4.523,44.538a1.155,1.155,0,0,1-1.4-1.613L6.739,35.7A20.707,20.707,0,0,1,3,23.8Zm9.924,15.5a1.155,1.155,0,0,1,.984.12,18.492,18.492,0,1,0-4.9-4.53,1.155,1.155,0,0,1,.11,1.211L6.439,41.463Z" transform="translate(-2.999 -3)" fill="#636668"/>
</svg>
