<svg xmlns="http://www.w3.org/2000/svg" width="46.219" height="41.597" viewBox="0 0 46.219 41.597">
  <path id="store" d="M11.244,42.286V29.576a3.466,3.466,0,0,1,3.466-3.466h6.933a3.466,3.466,0,0,1,3.466,3.466v12.71H40.131A3.467,3.467,0,0,0,43.6,38.82V20.332h2.311V38.82A5.777,5.777,0,0,1,40.131,44.6H10.088A5.777,5.777,0,0,1,4.311,38.82V20.332H6.622V38.82a3.466,3.466,0,0,0,3.466,3.466Zm2.311,0H22.8V29.576a1.156,1.156,0,0,0-1.155-1.155H14.71a1.156,1.156,0,0,0-1.155,1.155Zm18.488-12.71V34.2A1.156,1.156,0,0,0,33.2,35.353h2.311A1.156,1.156,0,0,0,36.664,34.2V29.576a1.156,1.156,0,0,0-1.155-1.155H33.2A1.156,1.156,0,0,0,32.042,29.576Zm-2.311,0A3.467,3.467,0,0,1,33.2,26.109h2.311a3.467,3.467,0,0,1,3.466,3.466V34.2a3.467,3.467,0,0,1-3.466,3.466H33.2A3.467,3.467,0,0,1,29.731,34.2ZM11.244,21.488H5.466A3.466,3.466,0,0,1,2,18.021V16.155a3.466,3.466,0,0,1,.248-1.287L6.7,3.726A1.156,1.156,0,0,1,7.777,3H42.442a1.155,1.155,0,0,1,1.073.726l4.457,11.142a3.465,3.465,0,0,1,.248,1.287v1.866a3.467,3.467,0,0,1-3.466,3.466H38.975a3.454,3.454,0,0,1-2.311-.883,3.454,3.454,0,0,1-2.311.883H27.42a3.454,3.454,0,0,1-2.311-.883,3.454,3.454,0,0,1-2.311.883H15.866a3.454,3.454,0,0,1-2.311-.883A3.454,3.454,0,0,1,11.244,21.488ZM8.56,5.311,4.394,15.726a1.156,1.156,0,0,0-.083.429v1.866a1.155,1.155,0,0,0,1.155,1.155h5.777A1.155,1.155,0,0,0,12.4,18.021V15.71a1.155,1.155,0,1,1,2.311,0v2.311a1.155,1.155,0,0,0,1.155,1.155H22.8a1.156,1.156,0,0,0,1.155-1.155V15.71a1.155,1.155,0,1,1,2.311,0v2.311a1.156,1.156,0,0,0,1.155,1.155h6.933a1.156,1.156,0,0,0,1.155-1.155V15.71a1.155,1.155,0,1,1,2.311,0v2.311a1.156,1.156,0,0,0,1.155,1.155h5.777a1.156,1.156,0,0,0,1.155-1.155V16.155a1.152,1.152,0,0,0-.083-.429L41.659,5.311Z" transform="translate(-2 -3)" fill="#636668"/>
</svg>
